<svg id="Layer_1" data-name="Layer 1" xmlns="http://www.w3.org/2000/svg" viewBox="0 0 20 20"><title>busStop</title><circle cx="10" cy="10" r="10" style="fill:#00bdff"/><path d="M4.11,7.51H4.5V9.85H4.11a.39.39,0,0,1-.39-.39V7.9A.39.39,0,0,1,4.11,7.51Zm11.72,0h-.39V9.85h.39a.39.39,0,0,0,.39-.39V7.9A.39.39,0,0,0,15.83,7.51Zm-1.17-.78v7a.78.78,0,0,1-.78.78v.78a.78.78,0,0,1-.78.78h-.78a.78.78,0,0,1-.78-.78v-.78H8.41v.78a.78.78,0,0,1-.78.78H6.85a.78.78,0,0,1-.78-.78v-.78a.78.78,0,0,1-.78-.78v-7A2.34,2.34,0,0,1,7.63,4.38h4.69A2.34,2.34,0,0,1,14.66,6.73ZM8.41,5.94h3.13V5.16H8.41Zm-.78,7a.78.78,0,1,0-.78.78A.78.78,0,0,0,7.63,13Zm6.25,0a.78.78,0,1,0-.78.78A.78.78,0,0,0,13.88,13Zm0-6.25H6.06v4.69h7.81V6.73Z" style="fill:#fff"/></svg>